<?xml version="1.0" standalone="no"?>
<svg xmlns="http://www.w3.org/2000/svg" width="312.168963631083" height="129.728963631083" viewBox="0 0 312.168963631083 129.728963631083"><path fill="#1b2fc2" fill-rule="nonzero" d="M6.84 34.68L0 34.68L0 0.32L6.84 0.32L6.84 12.60L10.08 12.60L10.08 0.32L16.92 0.32L16.92 34.68L10.08 34.68L10.08 19.08L6.84 19.08L6.84 34.68ZM26.28 34.68L19.64 34.68L19.64 0.32L26.28 0.32L26.28 34.68ZM29.04 34.68L29.04 0.32L38.52 0.32Q42.20 0.32 44.04 2.36Q45.88 4.40 45.92 8.40L45.92 8.40L46 24.48Q46.04 29.56 44.24 32.12Q42.44 34.68 38.28 34.68L38.28 34.68L29.04 34.68ZM35.96 28.60L37.16 28.60Q39.04 28.60 39.04 26.76L39.04 26.76L39.04 9.04Q39.04 7.88 38.86 7.30Q38.68 6.72 38.20 6.52Q37.72 6.32 36.72 6.32L36.72 6.32L35.96 6.32L35.96 28.60ZM48.76 34.68L48.76 0.32L59.32 0.32Q61.84 0.32 63.22 1.46Q64.60 2.60 65.08 4.66Q65.56 6.72 65.56 9.92L65.56 9.92Q65.56 12.84 64.80 14.48Q64.04 16.12 62.16 16.76L62.16 16.76Q63.72 17.08 64.42 18.32Q65.12 19.56 65.12 21.68L65.12 21.68L65.04 34.68L58.32 34.68L58.32 21.24Q58.32 19.80 57.76 19.40Q57.20 19 55.72 19L55.72 19L55.72 34.68L48.76 34.68ZM55.76 13.04L57.40 13.04Q58.84 13.04 58.84 9.92L58.84 9.92Q58.84 8.56 58.72 7.88Q58.60 7.20 58.28 6.94Q57.96 6.68 57.36 6.68L57.36 6.68L55.76 6.68L55.76 13.04ZM76.04 35Q71.88 35 69.72 32.46Q67.56 29.92 67.56 25.32L67.56 25.32L67.56 8.96Q67.56 4.52 69.72 2.26Q71.88 0 76.04 0L76.04 0Q80.20 0 82.36 2.26Q84.52 4.52 84.52 8.96L84.52 8.96L84.52 25.32Q84.52 29.96 82.36 32.48Q80.20 35 76.04 35L76.04 35ZM76.04 28.68Q76.96 28.68 77.28 27.88Q77.60 27.08 77.60 25.64L77.60 25.64L77.60 8.84Q77.60 7.72 77.30 7.02Q77 6.32 76.08 6.32L76.08 6.32Q74.36 6.32 74.36 8.92L74.36 8.92L74.36 25.68Q74.36 27.16 74.72 27.92Q75.08 28.68 76.04 28.68L76.04 28.68ZM94.36 35Q90.64 35 88.82 32.38Q87 29.76 87 24.44L87 24.44L87 9.64Q87 4.88 89.12 2.44Q91.24 0 95.44 0L95.44 0Q98.84 0 100.72 1.36Q102.60 2.72 103.32 5.32Q104.04 7.92 104.04 12L104.04 12L97.32 12L97.32 8.92Q97.32 7.68 96.98 7Q96.64 6.32 95.76 6.32L95.76 6.32Q93.80 6.32 93.80 8.88L93.80 8.88L93.80 25.52Q93.80 27.08 94.20 27.88Q94.60 28.68 95.60 28.68L95.60 28.68Q96.60 28.68 97 27.88Q97.40 27.08 97.40 25.52L97.40 25.52L97.40 20.60L95.56 20.60L95.56 14.68L103.96 14.68L103.96 34.68L101.20 34.68L100.04 31.80Q98.20 35 94.36 35L94.36 35ZM112.44 34.68L105.76 34.68L109.08 0.32L120.72 0.32L124.00 34.68L117.48 34.68L117.00 29.12L112.84 29.12L112.44 34.68ZM114.64 6.16L113.36 23.64L116.48 23.64L114.96 6.16L114.64 6.16ZM134.24 35Q129.56 35 127.48 32.68Q125.40 30.36 125.40 25.20L125.40 25.20L125.40 21.84L132.16 21.84L132.16 26.12Q132.16 28.68 133.80 28.68L133.80 28.68Q134.72 28.68 135.08 28.14Q135.44 27.60 135.44 26.32L135.44 26.32Q135.44 24.64 135.04 23.54Q134.64 22.44 134.02 21.70Q133.40 20.96 131.80 19.40L131.80 19.40L128.84 16.44Q125.40 13.08 125.40 9L125.40 9Q125.40 4.60 127.42 2.30Q129.44 0 133.32 0L133.32 0Q137.96 0 140.00 2.46Q142.04 4.92 142.04 10.16L142.04 10.16L135.04 10.16L135.00 7.80Q135.00 7.12 134.62 6.72Q134.24 6.32 133.56 6.32L133.56 6.32Q132.76 6.32 132.36 6.76Q131.96 7.20 131.96 7.96L131.96 7.96Q131.96 9.64 133.88 11.44L133.88 11.44L137.88 15.28Q139.28 16.64 140.20 17.86Q141.12 19.08 141.68 20.74Q142.24 22.40 142.24 24.68L142.24 24.68Q142.24 29.76 140.38 32.38Q138.52 35 134.24 35L134.24 35Z" transform="translate(0 0) scale(1.178)"></path><path fill="#1b2fc2" fill-rule="nonzero" d="M6.64 34.68L0 34.68L0 0.32L6.64 0.32L6.64 34.68ZM16.12 34.68L9.40 34.68L9.40 0.32L16.48 0.32L19.64 16.76L19.64 0.32L26.28 0.32L26.28 34.68L19.56 34.68L16.12 17.48L16.12 34.68ZM36.40 35Q32.68 35 30.86 32.38Q29.04 29.76 29.04 24.44L29.04 24.44L29.04 9.64Q29.04 4.88 31.16 2.44Q33.28 0 37.48 0L37.48 0Q40.88 0 42.76 1.36Q44.64 2.72 45.36 5.32Q46.08 7.92 46.08 12L46.08 12L39.36 12L39.36 8.92Q39.36 7.68 39.02 7Q38.68 6.32 37.80 6.32L37.80 6.32Q35.84 6.32 35.84 8.88L35.84 8.88L35.84 25.52Q35.84 27.08 36.24 27.88Q36.64 28.68 37.64 28.68L37.64 28.68Q38.64 28.68 39.04 27.88Q39.44 27.08 39.44 25.52L39.44 25.52L39.44 20.60L37.60 20.60L37.60 14.68L46 14.68L46 34.68L43.24 34.68L42.08 31.80Q40.24 35 36.40 35L36.40 35ZM62.92 34.68L48.72 34.68L48.72 0.32L62.48 0.32L62.48 6.96L55.72 6.96L55.72 13.64L62.20 13.64L62.20 20.12L55.72 20.12L55.72 28L62.92 28L62.92 34.68ZM71.92 34.68L65.20 34.68L65.20 0.32L72.28 0.32L75.44 16.76L75.44 0.32L82.08 0.32L82.08 34.68L75.36 34.68L71.92 17.48L71.92 34.68ZM91.44 34.68L84.80 34.68L84.80 0.32L91.44 0.32L91.44 34.68ZM108.40 34.68L94.20 34.68L94.20 0.32L107.96 0.32L107.96 6.96L101.20 6.96L101.20 13.64L107.68 13.64L107.68 20.12L101.20 20.12L101.20 28L108.40 28L108.40 34.68ZM110.68 34.68L110.68 0.32L121.24 0.32Q123.76 0.32 125.14 1.46Q126.52 2.60 127.00 4.66Q127.48 6.72 127.48 9.92L127.48 9.92Q127.48 12.84 126.72 14.48Q125.96 16.12 124.08 16.76L124.08 16.76Q125.64 17.08 126.34 18.32Q127.04 19.56 127.04 21.68L127.04 21.68L126.96 34.68L120.24 34.68L120.24 21.24Q120.24 19.80 119.68 19.40Q119.12 19 117.64 19L117.64 19L117.64 34.68L110.68 34.68ZM117.68 13.04L119.32 13.04Q120.76 13.04 120.76 9.92L120.76 9.92Q120.76 8.56 120.64 7.88Q120.52 7.20 120.20 6.94Q119.88 6.68 119.28 6.68L119.28 6.68L117.68 6.68L117.68 13.04ZM136.08 34.68L129.44 34.68L129.44 0.32L136.08 0.32L136.08 34.68ZM144.60 34.68L137.92 34.68L141.24 0.32L152.88 0.32L156.16 34.68L149.64 34.68L149.16 29.12L145.00 29.12L144.60 34.68ZM146.80 6.16L145.52 23.64L148.64 23.64L147.12 6.16L146.80 6.16Z" transform="translate(0 49.201) scale(1.073)"></path><path fill="#1b2fc2" fill-rule="nonzero" d="M6.84 34.68L0 34.68L0 0.32L6.84 0.32L6.84 12.60L10.08 12.60L10.08 0.32L16.92 0.32L16.92 34.68L10.08 34.68L10.08 19.08L6.84 19.08L6.84 34.68ZM26.28 34.68L19.64 34.68L19.64 0.32L26.28 0.32L26.28 34.68ZM29.04 34.68L29.04 0.32L38.52 0.32Q42.20 0.32 44.04 2.36Q45.88 4.40 45.92 8.40L45.92 8.40L46 24.48Q46.04 29.56 44.24 32.12Q42.44 34.68 38.28 34.68L38.28 34.68L29.04 34.68ZM35.96 28.60L37.16 28.60Q39.04 28.60 39.04 26.76L39.04 26.76L39.04 9.04Q39.04 7.88 38.86 7.30Q38.68 6.72 38.20 6.52Q37.72 6.32 36.72 6.32L36.72 6.32L35.96 6.32L35.96 28.60ZM48.76 34.68L48.76 0.32L59.32 0.32Q61.84 0.32 63.22 1.46Q64.60 2.60 65.08 4.66Q65.56 6.72 65.56 9.92L65.56 9.92Q65.56 12.84 64.80 14.48Q64.04 16.12 62.16 16.76L62.16 16.76Q63.72 17.08 64.42 18.32Q65.12 19.56 65.12 21.68L65.12 21.68L65.04 34.68L58.32 34.68L58.32 21.24Q58.32 19.80 57.76 19.40Q57.20 19 55.72 19L55.72 19L55.72 34.68L48.76 34.68ZM55.76 13.04L57.40 13.04Q58.84 13.04 58.84 9.92L58.84 9.92Q58.84 8.56 58.72 7.88Q58.60 7.20 58.28 6.94Q57.96 6.68 57.36 6.68L57.36 6.68L55.76 6.68L55.76 13.04ZM73.60 34.68L66.92 34.68L70.24 0.32L81.88 0.32L85.16 34.68L78.64 34.68L78.16 29.12L74 29.12L73.60 34.68ZM75.80 6.16L74.52 23.64L77.64 23.64L76.12 6.16L75.80 6.16ZM95.20 35Q90.96 35 88.90 32.60Q86.84 30.20 86.84 25.48L86.84 25.48L86.84 0.32L93.52 0.32L93.52 25.20Q93.52 26.84 93.84 27.76Q94.16 28.68 95.20 28.68L95.20 28.68Q96.24 28.68 96.56 27.78Q96.88 26.88 96.88 25.20L96.88 25.20L96.88 0.32L103.56 0.32L103.56 25.48Q103.56 30.20 101.50 32.60Q99.44 35 95.20 35L95.20 35ZM120.16 34.68L106.20 34.68L106.20 0.32L113.08 0.32L113.08 28.84L120.16 28.84L120.16 34.68ZM128.40 34.68L121.76 34.68L121.76 0.32L128.40 0.32L128.40 34.68ZM139.16 35Q135.40 35 133.14 32.64Q130.88 30.28 130.88 26.16L130.88 26.16L130.88 10.32Q130.88 5.20 132.92 2.60Q134.96 0 139.32 0L139.32 0Q143.12 0 145.44 2.08Q147.76 4.16 147.76 8.08L147.76 8.08L147.76 14L140.92 14L140.92 8.92Q140.92 7.44 140.56 6.88Q140.20 6.32 139.32 6.32L139.32 6.32Q138.40 6.32 138.06 6.96Q137.72 7.60 137.72 8.84L137.72 8.84L137.72 26.08Q137.72 27.44 138.12 28.06Q138.52 28.68 139.32 28.68L139.32 28.68Q140.92 28.68 140.92 26.08L140.92 26.08L140.92 19.88L147.84 19.88L147.84 26.36Q147.84 35 139.16 35L139.16 35ZM155.88 34.68L149.20 34.68L152.52 0.32L164.16 0.32L167.44 34.68L160.92 34.68L160.44 29.12L156.28 29.12L155.88 34.68ZM158.08 6.16L156.80 23.64L159.92 23.64L158.40 6.16L158.08 6.16Z" transform="translate(0 94.729) scale(1)"></path><g fill="#a6bd11" color="#a6bd11" transform="translate(182.441 0) scale(1.2972897)"><svg width="100.0" height="100.0" x="0.0" y="0.0" viewBox="0 0 100 100"><path d="M61.25,39.063v-15c0-6.213-5.035-11.25-11.25-11.25H12.5v-3.75H5v3.75v22.5v3.75h7.5v-3.75h26.25v3.75H35v7.5h30v-7.5H61.25  z"></path><path d="M87.5,62.189v3.124H61.25v-3.75H65v-7.5H35v7.5h3.75v15c0,6.215,5.037,11.25,11.25,11.25h37.5v3.124H95v-3.124v-22.5v-3.124  H87.5z"></path></svg></g></svg>